<?xml version="1.0" encoding="UTF-8"?>
<svg id="Layer_1" xmlns="http://www.w3.org/2000/svg" xmlns:xlink="http://www.w3.org/1999/xlink" version="1.1" viewBox="0 0 600 400">
  <!-- Generator: Adobe Illustrator 29.6.1, SVG Export Plug-In . SVG Version: 2.1.1 Build 9)  -->
  <defs>
    <filter id="drop-shadow-1" x="152.449" y="10.449" width="335" height="329" filterUnits="userSpaceOnUse">
      <feOffset dx="19.517" dy="19.517"/>
      <feGaussianBlur result="blur" stdDeviation="19.517"/>
      <feFlood flood-color="#000" flood-opacity=".5"/>
      <feComposite in2="blur" operator="in"/>
      <feComposite in="SourceGraphic"/>
    </filter>
  </defs>
  <path d="M230.449,50.04h139.103c21.09,0,38.141,17.051,38.141,38.141v133.718c0,21.09-17.051,38.141-38.141,38.141h-139.103c-21.09,0-38.141-17.051-38.141-38.141V88.181c0-21.09,17.051-38.141,38.141-38.141Z" fill="#fff" filter="url(#drop-shadow-1)"/>
  <g id="Java_Logo">
    <g id="Group">
      <path id="Vector_2" d="M257.051,170.181c0-4.431,16.834-6.9,24.664-7.501l.761.443c-3.012.538-15.09,2.658-15.09,5.444,0,3.007,18.514,5.001,29.293,5.001,18.26,0,30.687-2.754,34.016-3.672l4.66,2.722c-3.202,1.551-16.929,5.666-38.676,5.666-24.189,0-39.596-4.716-39.596-8.071l-.032-.031ZM293.889,232.374c-9.574.095-21.24-.696-31.068-2.342l-.919.538c9.796,2.88,23.428,4.589,38.391,4.463,29.419-.253,53.259-7.533,53.735-16.3l-.349-.19c-1.966,2.405-14.709,13.483-59.79,13.863v-.032ZM296.393,226.741c24.062-.222,51.008-4.906,50.945-12.818,0-1.425-.951-2.405-1.744-3.007l-.38.222c-2.219,6.108-21.05,10.634-48.821,10.888-17.943.158-42.766-4.146-42.798-9.084-.032-4.969,11.761-7.691,11.761-7.691l-.824-.475c-7.989,1.076-22.572,4.842-22.508,10.318.063,7.912,33.572,11.805,54.369,11.647ZM350.635,172.302c-.476,9.273-9.067,15.034-17.658,19.94l.793.443c9.161-2.564,25.488-10.065,24.125-21.554-.666-5.729-5.928-9.843-12.776-9.843-2.124,0-4.026.38-5.579.855l-.317.823c6.119-1.202,11.73,3.26,11.413,9.337ZM279.908,199.869c-2.79.57-8.877,1.962-8.877,4.906,0,4.083,13.029,7.216,25.615,7.216,17.309,0,24.378-4.431,24.727-4.684l-7.196-4.146c-3.075.728-8.211,1.867-17.499,1.867-10.367,0-17.119-1.772-17.119-3.703,0-.411.254-.886.729-1.266l-.349-.222-.032.031ZM322.421,186.07c-3.994,1.14-12.934,2.944-25.773,2.944s-22.857-2.152-22.889-4.685c0-1.677,2.029-2.405,2.029-2.405l-.349-.222c-6.023,1.077-11.635,2.722-11.603,5.159.063,4.463,17.151,7.818,32.812,7.818,13.314,0,26.059-2.215,31.828-5.159l-6.055-3.482v.031Z" fill="#5d809d"/>
      <path id="Vector_3" d="M318.997,86.497c0,24.624-33.794,34.024-33.794,51.527,0,12.28,8.148,20.003,12.681,24.845l-.38.222c-5.706-3.545-20.701-12.502-20.701-27.283,0-20.731,38.803-30.669,38.803-54.217,0-2.912-.444-5.127-.729-6.33l.38-.222c1.236,1.551,3.709,5.412,3.709,11.457h.031ZM330.093,108.273l-.412-.222c-7.355,2.469-29.99,11.394-29.99,28.01,0,9.4,9.194,14.623,9.194,23.421,0,3.133-1.775,6.108-3.234,7.849l.729.412c3.836-2.5,10.62-7.881,10.62-14.812,0-5.887-8.147-12.945-8.147-20.509,0-11.901,15.724-21.269,21.24-24.181v.032Z" fill="#e49439"/>
    </g>
  </g>
</svg>